<svg width="50" height="50" viewBox="0 0 50 50" fill="none" xmlns="http://www.w3.org/2000/svg">
<path d="M46 0H4C1.79086 0 0 1.79086 0 4V46C0 48.2091 1.79086 50 4 50H46C48.2091 50 50 48.2091 50 46V4C50 1.79086 48.2091 0 46 0Z" fill="white"/>
<path d="M39.3704 11.0375L5.93479 24.067C4.85181 24.489 4.91742 26.0431 6.03222 26.3723L12.4864 28.2782C13.763 28.6552 14.7685 29.6425 15.1686 30.9121L17.6994 38.9426C18.0306 39.9936 19.3625 40.3122 20.1334 39.525L22.0986 37.5185C23.4915 36.0962 25.7184 35.9147 27.3232 37.0927L33.1454 41.3663C34.2002 42.1406 35.7024 41.5653 35.9702 40.2847L41.6787 12.9922C41.9582 11.6554 40.643 10.5416 39.3704 11.0375ZM35.1785 17.0943L19.6478 30.8281C19.493 30.965 19.3945 31.1545 19.3715 31.3599L18.7735 36.6753C18.754 36.8486 18.5114 36.8716 18.4596 36.705L15.9995 28.7779C15.8868 28.4149 16.0337 28.0217 16.3566 27.8215L34.6967 16.4468C35.1185 16.185 35.5503 16.7656 35.1785 17.0943Z" fill="#9AC0DC"/>
</svg>
