<svg width="21" height="20" viewBox="0 0 21 20" fill="none" xmlns="http://www.w3.org/2000/svg">
<path d="M19.7831 11.3423C19.5786 11.2912 19.3742 11.3423 19.1952 11.4701C18.5307 12.0324 17.7639 12.4925 16.9205 12.7992C16.1281 13.1059 15.2591 13.2593 14.339 13.2593C12.2687 13.2593 10.3773 12.4158 9.02267 11.0612C7.66803 9.70653 6.82458 7.81515 6.82458 5.74485C6.82458 4.87584 6.97793 4.03239 7.23353 3.26561C7.51468 2.44772 7.92363 1.7065 8.46037 1.06752C8.6904 0.786366 8.63929 0.377418 8.35813 0.147385C8.17922 0.0195888 7.97474 -0.0315297 7.77027 0.0195888C5.59774 0.607451 3.70635 1.91097 2.35172 3.649C1.0482 5.36147 0.255859 7.48288 0.255859 9.80877C0.255859 12.5947 1.38047 15.1251 3.22073 16.9654C5.06099 18.8056 7.59136 19.9302 10.3773 19.9302C12.7288 19.9302 14.9013 19.1123 16.6393 17.7577C18.4029 16.3775 19.6809 14.4094 20.2176 12.1602C20.3454 11.7768 20.1409 11.419 19.7831 11.3423ZM15.8725 16.6842C14.3901 17.8599 12.4987 18.5756 10.4284 18.5756C8.0003 18.5756 5.80221 17.5788 4.21754 15.9941C2.63287 14.4094 1.63606 12.2113 1.63606 9.78321C1.63606 7.76403 2.3006 5.92377 3.45076 4.44133C4.2431 3.41897 5.23991 2.57551 6.39007 1.98765C6.26228 2.2688 6.13448 2.54995 6.03224 2.85666C5.69997 3.77679 5.54662 4.74804 5.54662 5.77041C5.54662 8.19854 6.54343 10.4222 8.1281 12.0069C9.71277 13.5915 11.9364 14.5883 14.3646 14.5883C15.438 14.5883 16.4604 14.4094 17.4061 14.0516C17.7384 13.9238 18.0706 13.796 18.3773 13.6427C17.7639 14.8184 16.9205 15.8663 15.8725 16.6842Z" fill="#C7C7C7"/>
</svg>
